<?xml version="1.0" encoding="UTF-8"?>
<svg viewBox="0 0 240 240" xmlns="http://www.w3.org/2000/svg">
 <defs>
  <linearGradient id="g">
   <stop stop-color="#a8caed" stop-opacity=".996" offset=".40195"/>
   <stop stop-color="#00a1ff" stop-opacity=".996" offset="1"/>
  </linearGradient>
  <linearGradient id="j">
   <stop stop-color="#a6eace" stop-opacity=".992" offset=".40195"/>
   <stop stop-color="#18e28b" stop-opacity=".988" offset=".60117"/>
   <stop stop-color="#01a564" stop-opacity=".988" offset="1"/>
  </linearGradient>
  <radialGradient id="h">
   <stop stop-color="#7f7f7f" offset="0"/>
   <stop stop-color="#efefef" stop-opacity=".996" offset=".6832"/>
  </radialGradient>
  <radialGradient id="f" cx=".70273" cy=".096289">
   <stop stop-color="#f2f7fc" stop-opacity=".992" offset=".019141"/>
   <stop stop-color="#7cbadd" stop-opacity=".992" offset=".21055"/>
   <stop stop-color="#5ebbed" stop-opacity=".984" offset=".54258"/>
   <stop stop-color="#0094ea" stop-opacity=".992" offset=".9918"/>
  </radialGradient>
  <radialGradient id="i" cx=".66758" cy=".17832">
   <stop stop-color="#f2f9f6" stop-opacity=".988" offset="0"/>
   <stop stop-color="#75f9d2" stop-opacity=".98" offset=".17539"/>
   <stop stop-color="#2cd3a1" stop-opacity=".98" offset=".42148"/>
   <stop stop-color="#1bc166" stop-opacity=".984" offset=".60508"/>
   <stop stop-color="#03aa4e" stop-opacity=".984" offset=".71836"/>
   <stop stop-color="#058943" stop-opacity=".992" offset="1"/>
  </radialGradient>
 </defs>
 <g stroke-linecap="round" stroke-linejoin="round" stroke-width="1.801">
  <g fill-rule="evenodd">
   <path transform="rotate(-30.798 91.535 109.99)" d="m0.8732 136.02c49.431-45.818 87.016-39.436 125.18-39.372l3.0889 16.048c25.789-22.109 79.844-4.5663 66.021-16.044-13.823-11.477-43.421-21.88-66.659-27.328l-4.8069 13.841c-41.675-0.39439-47.166 2.1008-70.115 13.257s-102.14 85.415-52.708 39.597z" fill="url(#g)"/>
   <path transform="rotate(-15.456 97.723 143.43)" d="m28.366 159.56c48.633-45.248 75.653-30.903 92.206-26.704l-0.4621 10.717c25.172-12.306 75.656 13.431 62.919 2.3498s-43.489-33.088-65.806-34.851l-3.6516 8.9334c-12.629-0.42122-32.97 0.60442-54.753 12.064-21.783 11.459-79.086 72.739-30.453 27.491z" fill="url(#j)"/>
  </g>
  <circle cx="204.95" cy="40.7" r="22.645" fill="url(#f)"/>
  <circle cx="206.45" cy="126.45" r="12.645" fill="url(#i)"/>
  <ellipse cx="118.45" cy="221.7" rx="86" ry="5.5" fill="url(#h)" stroke="#fff"/>
 </g>
</svg>
