<svg id="Capa_1" enable-background="new 0 0 512 512" height="512" viewBox="0 0 512 512" width="512" xmlns="http://www.w3.org/2000/svg"><g><g><circle cx="256" cy="256" fill="#0052be" r="256"/><path d="m512 256h-512c0 141.385 114.615 256 256 256s256-114.615 256-256z" fill="#00337a"/><g><path d="m286.002 411c-3.188 0-6.355-1.015-9.002-3l-120-90c-3.777-2.833-6-7.279-6-12v-100c0-4.721 2.223-9.167 6-12l120-90c4.545-3.409 10.626-3.958 15.708-1.417 5.082 2.542 8.292 7.735 8.292 13.417v280c0 5.682-3.21 10.875-8.292 13.417-2.122 1.061-4.42 1.583-6.706 1.583z" fill="#bceaf9"/><g fill="#8bb9ff"><path d="m151 256v50c0 4.721 2.223 9.167 6 12l120 90c2.646 1.985 5.813 3 9.002 3 2.286 0 4.584-.522 6.706-1.583 5.082-2.542 8.292-7.735 8.292-13.417v-140z"/><path d="m126 191c-19.299 0-35 15.701-35 35v60c0 19.299 15.701 35 35 35h35v-130z"/></g></g><g><path d="m91 256v30c0 19.299 15.701 35 35 35h35v-65z" fill="#4793ff"/></g></g><g><path d="m426 241h-25v-25c0-8.284-6.716-15-15-15s-15 6.716-15 15v25h-25c-8.284 0-15 6.716-15 15s6.716 15 15 15h25v25c0 8.284 6.716 15 15 15s15-6.716 15-15v-25h25c8.284 0 15-6.716 15-15s-6.716-15-15-15z" fill="#f9f9f9"/></g><path d="m346 271h25v25c0 8.284 6.716 15 15 15s15-6.716 15-15v-25h25c8.284 0 15-6.716 15-15h-110c0 8.284 6.716 15 15 15z" fill="#e2dff4"/></g></svg>